<svg version="1.1" id="menu" xmlns="http://www.w3.org/2000/svg" xmlns:xlink="http://www.w3.org/1999/xlink" xml:space="preserve">
	<g>
		<path d="M240,0C107.452,0,0,107.452,0,240s107.452,240,240,240c132.486-0.15,239.85-107.514,240-240C480,107.452,372.548,0,240,0z
			 M240,464C116.288,464,16,363.712,16,240S116.288,16,240,16c123.653,0.141,223.859,100.347,224,224
			C464,363.712,363.712,464,240,464z" />
	</g>
	<g>
		<path d="M336,232H144c-4.418,0-8,3.582-8,8s3.582,8,8,8h192c4.418,0,8-3.582,8-8S340.418,232,336,232z" />
	</g>
	<g>
		<path d="M336,312H144c-4.418,0-8,3.582-8,8s3.582,8,8,8h192c4.418,0,8-3.582,8-8S340.418,312,336,312z" />
	</g>
	<g>
		<path d="M336,152H144c-4.418,0-8,3.582-8,8s3.582,8,8,8h192c4.418,0,8-3.582,8-8S340.418,152,336,152z" />
	</g>
</svg>