<svg id="Capa_1" enable-background="new 0 0 511.995 511.995" height="512" viewBox="0 0 511.995 511.995" width="512" xmlns="http://www.w3.org/2000/svg"><path d="m90.78 393.941c-2.961 0-5.914-.875-8.456-2.61l-71.21-48.601c-9.2-6.278-13.229-17.665-10.026-28.333 3.204-10.668 12.839-17.951 23.976-18.123l42.763-.659 253.51-184.676c14.691-10.703 31.983-17.609 50.006-19.973l88.263-11.573h.001c12.92-1.689 26.034 2.167 35.977 10.592 9.942 8.426 15.901 20.728 16.35 33.751l.034.992c.59 17.152-8.275 33.138-23.138 41.719l-390.551 225.485c-2.326 1.342-4.916 2.009-7.499 2.009z" fill="#edeade"/><path d="m511.933 123.736c-.328-9.516-3.609-18.64-9.225-26.155l-460.897 266.1 40.513 27.65c2.543 1.735 5.496 2.61 8.456 2.61 2.583 0 5.173-.667 7.499-2.01l390.55-225.484c14.863-8.581 23.729-24.566 23.138-41.719z" fill="#d6d3c5"/><path d="m67.998 295.491-.17.124-42.763.659c-11.138.172-20.773 7.455-23.976 18.123s.826 22.055 10.026 28.333l71.21 48.601c2.543 1.735 5.496 2.61 8.456 2.61 2.583 0 5.173-.667 7.499-2.01l19.049-10.997z" fill="#8fd4ff"/><path d="m90.978 335.294-49.167 28.387 40.513 27.65c2.543 1.735 5.496 2.61 8.456 2.61 2.583 0 5.173-.667 7.499-2.01l19.049-10.997z" fill="#37a8e5"/><path d="m216.244 260.506c-1.15 0-2.305-.132-3.441-.4l-128.489-30.369c-5.986-1.411-10.503-6.333-11.398-12.417s2.015-12.099 7.34-15.173l72.519-41.869c1.981-1.143 4.198-1.819 6.48-1.975l196.891-9.123c6.96-.479 13.333 3.915 15.368 10.592 2.034 6.677-.804 13.874-6.849 17.363l-140.921 81.36c-2.297 1.328-4.886 2.011-7.5 2.011z" fill="#53b7f5"/><path d="m293.124 89.438c-4.632 0-9.2-2.138-12.136-6.168-4.879-6.696-3.405-16.078 3.291-20.957 8.882-6.471 18.482-12.081 28.533-16.676 15.017-6.863 30.887-11.426 47.17-13.56 8.209-1.067 15.746 4.709 16.822 12.923 1.077 8.214-4.708 15.746-12.923 16.823-13.317 1.746-26.304 5.48-38.599 11.1-8.226 3.76-16.078 8.349-23.339 13.639-2.664 1.941-5.755 2.876-8.819 2.876z" fill="#b2e7ff"/><g fill="#8fd4ff"><path d="m120.988 480.045c-5.185 0-10.226-2.69-13.004-7.503-4.142-7.175-1.684-16.349 5.49-20.49l207.674-119.902c7.174-4.145 16.349-1.685 20.49 5.49 4.142 7.175 1.684 16.349-5.49 20.49l-207.674 119.902c-2.362 1.364-4.941 2.013-7.486 2.013z"/><path d="m15.02 477.333c-5.185 0-10.226-2.69-13.004-7.503-4.142-7.174-1.684-16.348 5.49-20.49l43.559-25.149c7.174-4.144 16.349-1.684 20.49 5.49 4.142 7.174 1.684 16.348-5.49 20.49l-43.56 25.149c-2.361 1.365-4.941 2.013-7.485 2.013z"/></g></svg>