<?xml version="1.0" encoding="iso-8859-1"?>
<!-- Generator: Adobe Illustrator 19.0.0, SVG Export Plug-In . SVG Version: 6.00 Build 0)  -->
<svg version="1.1" id="Capa_1" xmlns="http://www.w3.org/2000/svg" xmlns:xlink="http://www.w3.org/1999/xlink" x="0px" y="0px"
	 viewBox="0 0 512 512" style="enable-background:new 0 0 512 512;" xml:space="preserve">
<path style="fill:#FF902C;" d="M504.116,495.88c-1.451,0-2.917-0.4-4.23-1.239c-54.07-34.521-97.756-32.572-140.003-30.688
	c-49.664,2.215-96.578,4.309-147.875-55.24c-2.838-3.295-2.468-8.267,0.827-11.105c3.295-2.839,8.267-2.469,11.105,0.826
	c46.305,53.752,87.517,51.918,135.242,49.785c42.607-1.901,90.909-4.056,149.179,33.148c3.665,2.34,4.741,7.209,2.399,10.874
	C509.259,494.594,506.715,495.879,504.116,495.88z"/>
<path style="fill:#B6E4EA;" d="M307.956,108.552L140.193,7.485c-12.114-7.297-27.906-3.379-35.204,8.734l-59.802,99.266
	L3.922,183.983c-6.108,10.139-4.517,23.054,3.869,31.407l189.524,188.775c4.894,4.874,11.333,7.491,18.015,7.491
	c2.077,0,4.178-0.253,6.261-0.77c8.787-2.18,15.635-8.643,18.318-17.289l79.308-255.471
	C322.726,126.821,318.094,114.66,307.956,108.552z"/>
<path style="fill:#96D7EE;" d="M307.956,108.552L140.193,7.485c-12.114-7.297-27.906-3.379-35.204,8.734l-4.977,8.26
	c8.162-6.81,20.075-8.081,29.681-2.295l167.764,101.067c10.138,6.108,14.769,18.269,11.261,29.573l-78.996,254.469
	c4.792-3.201,8.409-7.964,10.188-13.697l79.308-255.471C322.726,126.821,318.094,114.66,307.956,108.552z"/>
<path style="fill:#ECEDEF;" d="M319.733,124.895c-1.551-4.217-5.69-6.108-9.429-5.179L6.132,195.182
	c-6.069,1.812-7.644-0.288-4.676,9.791c1.163,3.952,3.436,7.528,6.336,10.417l189.524,188.775
	c4.893,4.874,11.334,7.491,18.014,7.491c2.078,0,4.178-0.253,6.262-0.77c8.786-2.181,15.634-8.643,18.317-17.289l79.308-255.47
	C320.536,133.876,320.719,129.27,319.733,124.895z"/>
<path style="fill:#F996B1;" d="M319.796,125.184c-0.041-0.192-0.097-0.385-0.171-0.567c-1.627-4.021,0.626-8.031-9.321-4.9
	l-157.61,39.103c2.57,14.911,66.814,252.583,68.898,252.066c8.786-2.181,15.634-8.643,18.317-17.289l79.308-255.47
	C320.506,133.969,320.711,129.472,319.796,125.184z"/>
<path style="fill:#F985A8;" d="M319.949,125.955c-0.388-2.141-0.922-4.776-1.535-6c-0.832-1.662-0.678-2.035-8.11-0.238
	l-12.652,3.139c0.643,0.92,1.093,1.972,1.298,3.099c0.734,4.053,0.481,8.262-0.732,12.171l-79.308,255.47
	c-0.448,1.446-1.024,2.824-1.696,4.139c2.496,8.382,4.078,13.224,4.377,13.151c8.786-2.181,15.634-8.643,18.317-17.289
	l79.308-255.47C320.43,134.217,320.683,130.009,319.949,125.955z"/>
<g>
	<path style="fill:#F7F5F5;" d="M141.493,135.319c-1.383,0-2.784-0.364-4.056-1.131c-3.725-2.245-4.925-7.084-2.682-10.808
		l13.488-22.388c2.243-3.725,7.081-4.927,10.808-2.682c3.725,2.245,4.925,7.084,2.682,10.808l-13.488,22.388
		C146.768,133.961,144.163,135.319,141.493,135.319z"/>
	<path style="fill:#F7F5F5;" d="M159.43,130.869c-1.383,0-2.784-0.364-4.056-1.131l-22.388-13.488
		c-3.725-2.245-4.925-7.084-2.682-10.808c2.244-3.725,7.083-4.926,10.808-2.682l22.388,13.488c3.725,2.245,4.925,7.084,2.682,10.808
		C164.705,129.511,162.101,130.869,159.43,130.869z"/>
</g>
<g>
	<path style="fill:#FFA600;" d="M310.973,411.779l-44.401-22.882c-2.502-1.291-5.501-1.146-7.865,0.375
		c-2.261,1.453-3.616,3.953-3.616,6.622c0,0.126,0.003,0.252,0.009,0.378l2.167,45.351l-38.194,24.553
		c-2.261,1.453-3.616,3.952-3.616,6.622c0,0.126,0.003,0.252,0.008,0.378c0.134,2.81,1.758,5.336,4.259,6.624l44.401,22.883
		c1.135,0.586,2.373,0.875,3.608,0.875c1.485,0,2.966-0.42,4.259-1.25c2.259-1.453,3.616-3.952,3.616-6.622
		c0-0.126-0.003-0.252-0.009-0.378l-2.166-45.351l38.194-24.552c2.259-1.453,3.616-3.952,3.616-6.622
		c0-0.126-0.003-0.252-0.009-0.378C315.097,415.592,313.474,413.067,310.973,411.779z"/>
	<path style="fill:#FFA600;" d="M427.39,490.963l-26.359-36.969l18.836-41.313c0.475-1.043,0.71-2.156,0.71-3.264
		c0-1.614-0.496-3.216-1.463-4.574c-1.634-2.291-4.367-3.535-7.165-3.267l-49.72,4.778c-2.8,0.269-5.244,2.013-6.412,4.571
		c-0.475,1.043-0.71,2.156-0.71,3.264c0,1.614,0.496,3.217,1.463,4.575l26.359,36.969l-18.836,41.313
		c-0.475,1.043-0.71,2.156-0.71,3.264c0,1.614,0.496,3.217,1.463,4.574c1.486,2.084,3.881,3.303,6.41,3.303
		c0.25,0,0.503-0.012,0.755-0.036l49.72-4.778c2.8-0.269,5.244-2.013,6.412-4.573c0.475-1.043,0.71-2.156,0.71-3.264
		C428.854,493.924,428.359,492.32,427.39,490.963z"/>
</g>
<g>
</g>
<g>
</g>
<g>
</g>
<g>
</g>
<g>
</g>
<g>
</g>
<g>
</g>
<g>
</g>
<g>
</g>
<g>
</g>
<g>
</g>
<g>
</g>
<g>
</g>
<g>
</g>
<g>
</g>
</svg>
