<svg id="Capa_1" enable-background="new 0 0 512 512" height="512" viewBox="0 0 512 512" width="512" xmlns="http://www.w3.org/2000/svg"><g><path d="m48 363.704c8.469-111.216 94.418-192.204 207.802-192.204 89.603 0 149.733 48.087 182.198 125.925h52.151c-34.127-96.524-126.138-165.698-234.349-165.698-131.695 0-239.401 102.442-247.937 231.978h40.135z" fill="#e5646e"/><path d="m84.5 355.419c12.129-88.899 79.074-148.919 171.302-148.919 70.82 0 122.524 31.923 152.698 90.925h46.176c-32.465-77.838-109.27-132.559-198.873-132.559-110.554 0-201.606 83.302-213.936 190.553z" fill="#ffd064"/><path d="m368 289.14h28.646v-24.555c-33.428-40.65-84.106-66.579-140.844-66.579-86.408 0-158.719 60.147-177.483 140.844h44.681c17.965-62.186 64.832-101.35 132.802-101.35 47.994 0 84.961 16.403 112.198 51.64z" fill="#b3e59f"/><path d="m134.5 363.704c8.06-56.188 62.885-103.704 121.302-103.704 31.584 0 68.281 16.947 89.198 37.425h34.784c-26.754-39.957-72.284-66.279-123.982-66.279-76.754 0-139.906 58.005-148.157 132.559h26.855z" fill="#a4ccff"/><path d="m255.802 247.715c-67.586 0-123.244 50.617-131.414 115.989h16.743c8.06-56.188 56.253-99.419 114.671-99.419 31.584 0 60.183 12.662 81.1 33.14h22.288c-24.294-30.278-61.548-49.71-103.388-49.71z" fill="#8bb3ea"/><path d="m148.098 347.134c-3.709 0-7.266.625-10.587 1.764-4.092 1.403-8.372-.919-10.087-4.89-7.622-17.651-25.155-30.014-45.605-30.014-21.74 0-40.173 13.979-46.923 33.42-.934-.079-1.832-.281-2.786-.281-2.863 0-5.642.363-8.292 1.046l-14.068 22.771 163.157.55 3.897-7.798c-5.731-9.905-16.44-16.568-28.706-16.568z" fill="#edf4ff"/><path d="m467.068 268.427c-8.314 0-16.003 2.393-22.713 6.282-11.678-14.899-29.795-24.509-50.194-24.509-12.818 0-24.753 3.78-34.751 10.287-15.305 9.961-19.243 46.513-19.243 46.513l5.333 2h159.171l4.857-11.577c-6.629-16.972-23.141-28.996-42.46-28.996z" fill="#edf4ff"/><g fill="#dbeaff"><path d="m176.8 363.704h-137.564c-8.512 0-15.419-7.012-15.419-15.524-11.286 2.921-20.274 11.647-23.526 22.797-1.353 4.638 2.178 9.297 7.01 9.297h165.485c5.024 0 8.495-4.903 7.009-9.703-.754-2.435-1.737-4.702-2.995-6.867z"/><path d="m367.179 297.425c-11.269 0-19.641-11.144-15.772-21.728 1.98-5.416 4.72-10.583 8.003-15.209-15.276 9.972-26.09 26.364-28.52 45.307-.557 4.339 2.875 8.2 7.25 8.2h166.532c4.399 0 8.01-3.917 7.22-8.244-.527-2.888-1.323-5.656-2.368-8.325z"/></g></g></svg>