<?xml version="1.0" encoding="iso-8859-1"?>
<!-- Generator: Adobe Illustrator 19.0.0, SVG Export Plug-In . SVG Version: 6.00 Build 0)  -->
<svg version="1.1" id="Layer_1" xmlns="http://www.w3.org/2000/svg" xmlns:xlink="http://www.w3.org/1999/xlink" x="0px" y="0px"
	 viewBox="0 0 512 512" style="enable-background:new 0 0 512 512;" xml:space="preserve">
<g>
	<path style="fill:#586A73;" d="M416.824,465.4c0,6.199-6.043,11.225-13.498,11.225H232.373c-7.454,0-13.497-5.025-13.497-11.225
		l0,0c0-6.197,6.043-11.221,13.497-11.221h170.953C410.781,454.178,416.824,459.202,416.824,465.4L416.824,465.4z"/>
	<path style="fill:#586A73;" d="M151.835,434.702c0,0,1.855,14.105,13.798,14.105c11.941,0,137.905,0,137.905,0v-7.053
		L151.835,434.702z"/>
	<path style="fill:#586A73;" d="M478.725,431.518l-172.586,7.279v10.01c0,0,134.881,0,153.99,0
		C479.241,448.807,478.725,431.518,478.725,431.518z"/>
	<path style="fill:#586A73;" d="M400.071,397.358v12.229c0,0,47.773,0,74.811,0s34.178-24.459,34.178-24.459L400.071,397.358z"/>
	<path style="fill:#586A73;" d="M0.501,377.132c0,0,3.719,32.455,38.299,32.455s177.45,0,177.45,0l2.625-12.43L0.501,377.132z"/>
	<g>
		<path style="fill:#C6CBCB;" d="M362.452,134.591c0,0-3.684-8.735,5.82-14.56c9.504-5.824,18.24-1.248,22.4,4.576
			c0,0-9.982,0.416-10.4,9.983c0,0,2.494-9.769,14.559-8.628c12.065,1.141,13.322,14.869,3.334,18.611
			c-9.99,3.745-16.852,1.456-16.852,1.456s-11.232,8.113-23.088-1.456c0,0-14.975,4.784-16.432-8.527
			c-1.455-13.312,13.729-14.975,22.465-15.807C364.258,120.239,357.11,127.726,362.452,134.591z"/>
		<path style="opacity:0.5;fill:#586A73;enable-background:new    ;" d="M404.645,133.621c0.93,4.219-1.209,8.978-6.48,10.953
			c-9.99,3.745-16.852,1.456-16.852,1.456s-11.232,8.113-23.088-1.456c0,0-14.975,4.784-16.432-8.527
			c-0.301-2.744,0.107-4.991,1.018-6.84c0,0-3.605,13.88,14.969,10.885c0,0,11.982,11.5,22.768,3.262c0,0,10.467,3.444,18.871-1.049
			C405.184,139.223,404.645,133.621,404.645,133.621z"/>
	</g>
	<path style="fill:#C6CBCB;" d="M512,371.368c0,18.594-15.076,33.67-33.67,33.67H33.67c-18.595,0-33.67-15.076-33.67-33.67l0,0
		c0-18.596,15.075-33.67,33.67-33.67h444.66C496.924,337.698,512,352.772,512,371.368L512,371.368z"/>
	<path style="fill:#C6CBCB;" d="M478.725,432.527c0,6.931-6.52,12.55-14.561,12.55H166.395c-8.043,0-14.561-5.619-14.561-12.55l0,0
		c0-6.933,6.518-12.552,14.561-12.552h297.769C472.206,419.975,478.725,425.594,478.725,432.527L478.725,432.527z"/>
	<path style="fill:#C6CBCB;" d="M416.824,463.279c0,5.025-6.043,9.1-13.498,9.1H232.373c-7.454,0-13.497-4.074-13.497-9.1l0,0
		c0-5.027,6.043-9.1,13.497-9.1h170.953C410.781,454.178,416.824,458.25,416.824,463.279L416.824,463.279z"/>
	<path style="fill:#C6CBCB;" d="M409.188,414.288c0,11.561-7.539,20.931-16.838,20.931H227.752c-9.299,0-16.84-9.37-16.84-20.931
		l0,0c0-11.56,7.541-20.93,16.84-20.93H392.35C401.649,393.359,409.188,402.729,409.188,414.288L409.188,414.288z"/>
	<path style="fill:#C6CBCB;" d="M378.441,450.538c0,7.035-2.972,12.74-6.635,12.74h-78.8c-3.664,0-6.633-5.705-6.633-12.74l0,0
		c0-7.035,2.969-12.74,6.633-12.74h78.8C375.469,437.797,378.441,443.503,378.441,450.538L378.441,450.538z"/>
	<path style="fill:#586A73;" d="M483.489,361.661c0,8.545-6.928,15.471-15.471,15.471H50.024c-8.544,0-15.47-6.926-15.47-15.471l0,0
		c0-8.543,6.926-15.469,15.47-15.469h417.994C476.561,346.193,483.489,353.118,483.489,361.661L483.489,361.661z"/>
	<g>
		<path style="fill:#2D404E;" d="M63.674,365.607c18.199,0,385.838,0,396.152,0c10.312,0,18.807-2.43,13.348-15.168
			c-5.461-12.74-46.107-106.167-46.107-106.167s-4.854-17.593-11.527-17.593s-9.1,6.066-12.74,14.56
			c-3.639,8.495-9.404,32.457-19.414,32.457s-27.337-47.253-37.347-71.52s-43.49-110.475-51.68-129.282
			c-8.189-18.807-9.856-37.315-22.599-37.315c-9.1,0-24.065,44.057-31.952,64.987s-39.333,93.05-45.703,106.7
			s-9.708,26.997-17.594,26.997s-15.468-21.234-22.142-37.917c-6.675-16.683-8.799-35.187-21.538-35.187
			c-12.74,0-24.267,32.76-29.118,42.467c-4.853,9.707-50.353,123.759-55.812,137.712C42.442,355.292,43.046,365.607,63.674,365.607z
			"/>
		<path style="fill:#253744;" d="M132.833,161.158c12.739,0,14.863,18.504,21.538,35.187c3.673,9.185,7.624,19.749,11.748,27.39
			l52.757,141.872h-79.75l-12.345-44.795l28.088-53.044l-22.036-48.976l9.917-37.129L132.833,161.158z"/>
		<path style="fill:#253744;" d="M473.174,350.439c-5.461-12.74-46.107-106.167-46.107-106.167s-4.854-17.593-11.527-17.593
			c0,0,3.92,10.467,5.732,23.507s11.256,52.193,11.256,52.193l-6.066,43.207l14.145,20.021c11.066,0,17.932,0,19.221,0
			C470.139,365.607,478.633,363.176,473.174,350.439z"/>
		<path style="fill:#253744;" d="M271.76,35.577c12.742,0,16.078,16.38,24.268,35.187c8.189,18.807,42.751,113.821,52.761,138.088
			c5.176,12.548,13.585,31.849,19.231,44.411l41.17,112.343h-97.273l10.877-125.944l-33.23-61.021l-0.604-57.396l-12.084-15.104
			c0,0,8.459-32.625,6.043-46.521C280.5,45.724,271.76,35.577,271.76,35.577z"/>
		<path style="fill:#D1D5D5;" d="M154.371,195.02c-6.675-16.683-8.799-35.187-21.538-35.187c-12.74,0-24.267,32.76-29.118,42.467
			c-0.566,1.134-1.688,3.69-3.234,7.345c0,0-5.813,13.131,3.521,16.131s15.667-30.667,26.333-29.333s8.332,11.675,15.333,13
			C158,211.776,154.371,195.02,154.371,195.02z"/>
		<path style="fill:#D1D5D5;" d="M346.482,231.197c-6.713,0-16.479-11.137-25.095-20.962c-6.457-7.364-12.557-14.319-15.609-14.319
			c-0.14,0-0.272,0.015-0.397,0.044c-2.598,0.619-4.417,3.354-6.523,6.521c-3.402,5.117-7.637,11.484-17.264,11.484
			c-8.805,0-11.281-17.247-13.677-33.926c-1.849-12.874-3.596-25.034-8.091-27.77c-0.869-0.529-1.776-0.787-2.773-0.787
			c-4.754,0-10.323,5.926-16.219,12.2c-6.334,6.74-12.884,13.71-18.965,13.71c-0.255,0-0.51-0.012-0.763-0.037
			c-2.358-0.234-4.14-1.292-5.295-3.146c-4.421-7.092,1.572-23.364,1.829-24.053c9.666-23.887,18.214-45.432,21.78-54.894
			c9.687-25.708,23.58-59.887,32.341-59.887c10.367,0,14.647,10.849,20.067,24.583c1.362,3.452,2.771,7.021,4.384,10.724
			c4.498,10.33,17.71,44.451,30.486,77.449c8.786,22.69,17.085,44.122,22.272,57.113c0.277,0.545,6.933,13.815,3.885,21.341
			c-0.855,2.11-2.41,3.566-4.621,4.328C347.688,231.102,347.099,231.197,346.482,231.197L346.482,231.197z"/>
		<path style="fill:#D1D5D5;" d="M432.687,282.818c-0.534,0-1.1-0.014-1.696-0.041c-8.633-0.412-10.87-7.344-12.845-13.461
			c-1.262-3.908-2.352-7.285-4.887-8.318c-0.64-0.26-1.195-0.393-1.651-0.393c-1.54,0-1.929,1.537-2.378,3.318
			c-0.587,2.324-1.252,4.959-4.664,4.959c-0.391,0-0.815-0.037-1.263-0.107c-1.955-0.312-3.475-1.25-4.516-2.783
			c-2.761-4.07-1.279-10.885-1.215-11.173c0.914-2.42,5.313-14.482,5.313-14.482c3.491-8.155,6.015-14.049,12.653-14.049
			c6.744,0,11.519,15.265,11.719,15.915l14.271,33.436c0.041,0.084,1.085,2.285-0.152,4.264
			C440.165,281.837,437.242,282.818,432.687,282.818L432.687,282.818z"/>
		<path style="fill:#253744;" d="M441.349,275.914c-5.607-13.138-10.384-24.329-12.729-29.825
			c2.346,5.497,7.121,16.686,12.726,29.817C441.345,275.908,441.348,275.913,441.349,275.914z"/>
		<path style="fill:#253744;" d="M298.955,77.781c0.066,0.164,0.134,0.33,0.202,0.498C299.088,78.111,299.021,77.945,298.955,77.781
			z"/>
		<path style="fill:#253744;" d="M300.97,82.778c0.04,0.099,0.078,0.196,0.118,0.296C301.048,82.975,301.01,82.877,300.97,82.778z"
			/>
		<path style="fill:#253744;" d="M299.583,79.329c0.062,0.153,0.124,0.307,0.187,0.463
			C299.707,79.636,299.644,79.482,299.583,79.329z"/>
		<path style="fill:#253744;" d="M298.376,76.366c0.063,0.154,0.128,0.312,0.191,0.469C298.504,76.678,298.44,76.52,298.376,76.366z
			"/>
		<path style="fill:#253744;" d="M300.258,81.005c0.049,0.121,0.097,0.241,0.146,0.364
			C300.355,81.246,300.307,81.127,300.258,81.005z"/>
		<path style="fill:#253744;" d="M297.833,75.042c0.06,0.145,0.121,0.294,0.182,0.443C297.954,75.337,297.892,75.187,297.833,75.042
			z"/>
		<path style="fill:#253744;" d="M296.847,72.68c0.058,0.136,0.119,0.283,0.178,0.424C296.966,72.962,296.905,72.816,296.847,72.68z
			"/>
		<path style="fill:#253744;" d="M296.421,71.676c0.038,0.089,0.079,0.188,0.118,0.279C296.5,71.863,296.459,71.765,296.421,71.676z
			"/>
		<path style="fill:#253744;" d="M297.319,73.805c0.058,0.137,0.117,0.282,0.176,0.424
			C297.436,74.087,297.376,73.943,297.319,73.805z"/>
		<path style="fill:#253744;" d="M301.769,84.777c0.007,0.016,0.013,0.031,0.019,0.047
			C301.782,84.808,301.776,84.793,301.769,84.777z"/>
		<path style="fill:#C6CBCB;" d="M145.667,209.443c12.333,2.333,8.703-14.422,8.703-14.422
			c-6.675-16.683-8.799-35.187-21.538-35.187l9.917,20.505l-5.276,19.754C140.476,203.652,140.991,208.558,145.667,209.443z"/>
		<path style="fill:#D1D5D5;" d="M298.014,75.485c0.119,0.288,0.239,0.58,0.362,0.881C298.253,76.065,298.133,75.773,298.014,75.485
			z"/>
		<path style="fill:#D1D5D5;" d="M296.54,71.955c0.101,0.235,0.201,0.472,0.308,0.725C296.741,72.427,296.64,72.19,296.54,71.955z"
			/>
		<path style="fill:#D1D5D5;" d="M301.088,83.075c0.223,0.556,0.449,1.123,0.681,1.702C301.538,84.197,301.311,83.63,301.088,83.075
			z"/>
		<path style="fill:#D1D5D5;" d="M297.495,74.229c0.11,0.265,0.222,0.534,0.338,0.813C297.716,74.763,297.605,74.494,297.495,74.229
			z"/>
		<path style="fill:#D1D5D5;" d="M297.025,73.104c0.097,0.229,0.193,0.458,0.294,0.701
			C297.218,73.563,297.122,73.333,297.025,73.104z"/>
		<path style="fill:#D1D5D5;" d="M296.028,70.764c0.124,0.285,0.256,0.591,0.394,0.912
			C296.284,71.354,296.152,71.049,296.028,70.764z"/>
		<path style="fill:#D1D5D5;" d="M301.788,84.824c7.291,18.28,18.841,48.2,29.228,75.009
			C320.627,133.021,309.079,103.103,301.788,84.824z"/>
		<path style="fill:#D1D5D5;" d="M300.405,81.369c0.185,0.459,0.374,0.931,0.565,1.409C300.779,82.3,300.589,81.829,300.405,81.369z
			"/>
		<path style="fill:#D1D5D5;" d="M299.769,79.792c0.16,0.396,0.323,0.801,0.489,1.213C300.092,80.593,299.929,80.188,299.769,79.792
			z"/>
		<path style="fill:#D1D5D5;" d="M298.568,76.835c0.127,0.309,0.255,0.624,0.387,0.946
			C298.823,77.459,298.695,77.144,298.568,76.835z"/>
		<path style="fill:#D1D5D5;" d="M351.641,212.376c-1.298-3.97-2.823-6.992-2.853-7.05c1.058,2.648,1.982,4.938,2.747,6.791
			C351.571,212.202,351.606,212.291,351.641,212.376z"/>
		<path style="fill:#D1D5D5;" d="M299.157,78.279c0.139,0.343,0.281,0.693,0.426,1.05C299.438,78.972,299.295,78.621,299.157,78.279
			z"/>
		<path style="fill:#C6CBCB;" d="M346.482,231.197c-6.713,0-16.479-11.137-25.095-20.962c-6.457-7.364-12.557-14.319-15.609-14.319
			c-0.14,0-0.272,0.015-0.397,0.044c-1.485,0.354-2.843,1.424-4.403,3.47l-0.188,0.246l-11.402-20.939l-0.627-57.42l-12.104-15.128
			l0.025-0.097c0.084-0.326,8.42-32.742,6.039-46.437c-2.381-13.683-11.025-23.846-11.112-23.947l-0.285-0.331h0.437
			c10.367,0,14.647,10.849,20.067,24.583c1.362,3.452,59.813,153.641,59.813,153.641c2.333,7.133,3.783,14.838-3.407,17.314
			C347.688,231.102,347.099,231.197,346.482,231.197z"/>
		<path style="fill:#D1D5D5;" d="M441.349,275.914c0.02,0.048,0.041,0.096,0.062,0.144
			C441.376,275.977,441.354,275.926,441.349,275.914z"/>
		<path style="fill:#D1D5D5;" d="M427.067,242.451c0,0,0.562,1.317,1.553,3.639C427.627,243.765,427.067,242.451,427.067,242.451z"
			/>
		<path style="fill:#C6CBCB;" d="M432.687,282.818c-0.534,0-1.1-0.014-1.696-0.041c-1.132-0.055-2.182-0.215-3.21-0.488
			l-0.116-0.031l-0.027-0.117c-2.464-10.834-5.603-25.201-6.563-32.118c-1.788-12.867-5.683-23.36-5.722-23.465l-0.101-0.271h0.288
			c6.744,0,12.88,16.494,13.08,17.144l12.954,32.309c0.247,0.611,0.888,2.562-0.271,4.277c-1.256,1.859-4.154,2.801-8.614,2.801
			C432.688,282.818,432.688,282.818,432.687,282.818z"/>
	</g>
	<path style="fill:#E2E5E7;" d="M153.639,94.07c0,0-5.163-12.244,8.16-20.409c13.321-8.164,25.567-1.75,31.398,6.414
		c0,0-13.994,0.584-14.579,13.995c0,0,3.498-13.694,20.409-12.095c16.91,1.599,18.674,20.842,4.672,26.09
		c-14.001,5.249-23.622,2.041-23.622,2.041s-15.744,11.372-32.362-2.041c0,0-20.992,6.705-23.034-11.955
		c-2.04-18.659,19.243-20.991,31.489-22.157C156.17,73.953,146.152,84.448,153.639,94.07z"/>
	<path style="fill:#C6CBCB;" d="M212.786,92.71c1.303,5.915-1.695,12.584-9.086,15.354c-14.001,5.249-23.622,2.041-23.622,2.041
		s-15.744,11.372-32.362-2.041c0,0-20.992,6.705-23.034-11.955c-0.421-3.845,0.149-6.996,1.428-9.588
		c0,0-5.055,19.457,20.981,15.257c0,0,16.798,16.122,31.914,4.573c0,0,14.674,4.828,26.455-1.47
		C213.54,100.563,212.786,92.71,212.786,92.71z"/>
	<path style="opacity:0.3;fill:#586A73;enable-background:new    ;" d="M400.071,386.871l-12.938,6.577
		c0,0,56.563,13.702,61.901,0.96S400.071,386.871,400.071,386.871z"/>
	<path style="opacity:0.3;fill:#586A73;enable-background:new    ;" d="M42.589,391.908l-8.207,4.172c0,0,35.882,8.692,39.268,0.609
		S42.589,391.908,42.589,391.908z"/>
	<path style="opacity:0.3;fill:#586A73;enable-background:new    ;" d="M172.689,390.706l-5.428,3.612
		c0,0,31.901,7.729,34.911,0.542C205.183,387.673,172.689,390.706,172.689,390.706z"/>
	<path style="opacity:0.3;fill:#586A73;enable-background:new    ;" d="M319.874,405.81l-8.207,4.172c0,0,35.882,8.692,39.268,0.609
		C354.321,402.508,319.874,405.81,319.874,405.81z"/>
	<path style="opacity:0.2;fill:#2D404E;enable-background:new    ;" d="M90.773,368.931l-5.294,2.691c0,0,23.148,5.607,25.333,0.393
		C112.996,366.801,90.773,368.931,90.773,368.931z"/>
	<g>
		<path style="fill:#48B19B;" d="M428.784,364.033c-6.347-12.693-23.801-53.154-34.907-53.154
			c-11.107,0-28.561,40.461-34.907,53.154c-6.348,12.694-1.587,16.264,11.106,16.264s23.801,0,23.801,0s11.106,0,23.801,0
			C430.371,380.296,435.13,376.727,428.784,364.033z"/>
		<rect x="387.133" y="380.296" style="fill:#9D6227;" width="13.486" height="13.153"/>
		<path style="fill:#48B19B;" d="M405.366,340.607c-3.253-13.509-7.377-23.379-10.497-29.624c-0.336-0.067-0.667-0.105-0.992-0.105
			c-11.107,0-28.561,40.461-34.907,53.154c-6.348,12.694-1.587,16.264,11.106,16.264s23.801,0,23.801,0s6.772,0,15.783,0
			C409.759,371.453,409.192,356.5,405.366,340.607z"/>
		<path style="fill:#49A893;" d="M428.784,364.033c-6.161-12.321-22.787-50.806-33.915-53.049
			c3.12,6.245,7.244,16.115,10.497,29.624c3.826,15.894,4.394,30.846,4.294,39.688c2.529,0,5.235,0,8.018,0
			C430.371,380.296,435.13,376.727,428.784,364.033z"/>
		<polygon style="fill:#915A26;" points="387.133,380.296 387.133,389.947 400.62,380.296 		"/>
	</g>
	<g>
		<path style="fill:#48B19B;" d="M63.822,375.427c-4.486-8.973-16.823-37.572-24.674-37.572c-7.852,0-20.188,28.6-24.674,37.572
			c-4.487,8.973-1.122,11.495,7.851,11.495s16.824,0,16.824,0s7.851,0,16.823,0S68.309,384.4,63.822,375.427z"/>
		<rect x="34.382" y="386.922" style="fill:#9D6227;" width="9.533" height="9.298"/>
		<path style="fill:#48B19B;" d="M47.27,358.87c-2.299-9.548-5.214-16.525-7.42-20.939c-0.237-0.048-0.471-0.074-0.701-0.074
			c-7.852,0-20.188,28.6-24.674,37.572c-4.487,8.973-1.122,11.495,7.851,11.495s16.824,0,16.824,0s4.787,0,11.156,0
			C50.375,380.672,49.974,370.103,47.27,358.87z"/>
		<path style="fill:#49A893;" d="M63.822,375.427c-4.355-8.71-16.107-35.912-23.973-37.498c2.206,4.414,5.121,11.392,7.42,20.939
			c2.705,11.234,3.105,21.804,3.035,28.054c1.788,0,3.701,0,5.667,0C64.944,386.922,68.309,384.4,63.822,375.427z"/>
		<polygon style="fill:#915A26;" points="34.382,386.922 34.382,393.745 43.915,386.922 		"/>
	</g>
	<g>
		<path style="fill:#48B19B;" d="M103.557,359.207c-2.755-5.51-10.331-23.072-15.152-23.072s-12.397,17.562-15.152,23.072
			c-2.755,5.51-0.688,7.059,4.821,7.059c5.51,0,10.331,0,10.331,0s4.821,0,10.331,0S106.312,364.717,103.557,359.207z"/>
		<rect x="85.479" y="366.266" style="fill:#9D6227;" width="5.854" height="5.71"/>
		<path style="fill:#48B19B;" d="M93.393,349.039c-1.412-5.863-3.202-10.148-4.557-12.858c-0.146-0.029-0.29-0.046-0.431-0.046
			c-4.821,0-12.397,17.562-15.152,23.072c-2.755,5.51-0.688,7.059,4.821,7.059c5.51,0,10.331,0,10.331,0s2.94,0,6.851,0
			C95.299,362.428,95.053,355.939,93.393,349.039z"/>
		<path style="fill:#49A893;" d="M103.557,359.207c-2.674-5.349-9.891-22.053-14.721-23.026c1.354,2.71,3.145,6.995,4.557,12.858
			c1.661,6.898,1.907,13.389,1.864,17.227c1.098,0,2.272,0,3.48,0C104.246,366.266,106.312,364.717,103.557,359.207z"/>
		<polygon style="fill:#915A26;" points="85.479,366.266 85.479,370.456 91.332,366.266 		"/>
	</g>
	<g>
		<path style="fill:#48B19B;" d="M335.54,392.978c-3.639-7.275-13.643-30.467-20.008-30.467c-6.366,0-16.369,23.191-20.009,30.467
			c-3.638,7.275-0.907,9.32,6.367,9.32c7.275,0,13.642,0,13.642,0s6.365,0,13.642,0C336.449,402.297,339.176,400.253,335.54,392.978
			z"/>
		<rect x="311.667" y="402.297" style="fill:#9D6227;" width="7.729" height="7.54"/>
		<path style="fill:#48B19B;" d="M322.118,379.551c-1.865-7.742-4.229-13.401-6.018-16.979c-0.191-0.039-0.383-0.061-0.568-0.061
			c-6.366,0-16.369,23.191-20.009,30.467c-3.638,7.275-0.907,9.32,6.367,9.32c7.275,0,13.642,0,13.642,0s3.882,0,9.047,0
			C324.635,397.23,324.311,388.66,322.118,379.551z"/>
		<path style="fill:#49A893;" d="M335.54,392.978c-3.531-7.063-13.062-29.12-19.439-30.406c1.789,3.578,4.152,9.237,6.018,16.979
			c2.193,9.109,2.518,17.68,2.461,22.747c1.45,0,3,0,4.595,0C336.449,402.297,339.176,400.253,335.54,392.978z"/>
		<polygon style="fill:#915A26;" points="311.667,402.297 311.667,407.829 319.396,402.297 		"/>
	</g>
	<g>
		<path style="fill:#48B19B;" d="M187.436,380.367c-3.112-6.224-11.669-26.061-17.114-26.061c-5.446,0-14.002,19.837-17.114,26.061
			s-0.778,7.973,5.445,7.973s11.669,0,11.669,0s5.445,0,11.669,0S190.547,386.59,187.436,380.367z"/>
		<rect x="167.016" y="388.34" style="fill:#9D6227;" width="6.612" height="6.449"/>
		<path style="fill:#48B19B;" d="M175.955,368.882c-1.595-6.622-3.617-11.462-5.146-14.523c-0.165-0.033-0.327-0.052-0.486-0.052
			c-5.446,0-14.002,19.837-17.114,26.061s-0.778,7.973,5.445,7.973s11.669,0,11.669,0s3.32,0,7.738,0
			C178.109,384.004,177.831,376.673,175.955,368.882z"/>
		<path style="fill:#49A893;" d="M187.436,380.367c-3.021-6.042-11.172-24.909-16.628-26.009c1.53,3.062,3.552,7.901,5.146,14.523
			c1.876,7.792,2.154,15.123,2.105,19.458c1.24,0,2.567,0,3.931,0C188.214,388.34,190.547,386.59,187.436,380.367z"/>
		<polygon style="fill:#915A26;" points="167.016,388.34 167.016,393.072 173.628,388.34 		"/>
	</g>
</g>
<g>
</g>
<g>
</g>
<g>
</g>
<g>
</g>
<g>
</g>
<g>
</g>
<g>
</g>
<g>
</g>
<g>
</g>
<g>
</g>
<g>
</g>
<g>
</g>
<g>
</g>
<g>
</g>
<g>
</g>
</svg>
